<svg width="564" height="565" viewBox="0 0 564 565" fill="none" xmlns="http://www.w3.org/2000/svg">
<g clip-path="url(#clip0_609_5445)">
<path d="M147.225 360.089L148.507 362.434L156.671 357.932L148.382 362.216C150.697 366.687 151.885 371.533 151.885 377.193V377.505C151.791 387.073 148.789 394.265 141.939 401.143L141.845 401.237C134.933 408.116 127.707 411.149 118.074 411.274C108.409 411.18 101.09 408.147 93.9901 401.175C87.2341 394.296 84.2314 387.042 84.1376 377.349V377.161C84.1376 371.408 85.2949 366.562 87.5469 362.122L79.227 357.901L87.3905 362.434L88.5478 360.34C91.05 355.837 89.4235 350.178 84.9196 347.645C80.4156 345.144 74.7543 346.77 72.2208 351.272L71.0635 353.367L70.9071 353.68C67.2476 360.871 65.4648 368.844 65.4648 377.193V377.411C65.371 391.451 70.7507 404.489 80.7909 414.369C90.7998 424.5 103.905 430.003 118.043 429.909C132.18 430.003 145.254 424.469 155.107 414.307L148.445 407.772L155.013 414.401C165.116 404.552 170.589 391.544 170.495 377.505V377.193C170.495 368.844 168.65 360.809 164.897 353.617L164.772 353.398L163.489 351.053C161.018 346.551 155.326 344.893 150.822 347.395C146.318 349.865 144.66 355.556 147.162 360.058L147.225 360.089ZM251.974 488.473C249.253 483.627 247.845 478.342 247.845 471.995V471.808C247.845 466.086 249.003 461.239 251.255 456.768C252.85 453.672 254.977 450.733 257.76 447.919L251.129 441.384L257.666 448.044C264.735 441.228 272.085 438.226 281.782 438.133C291.478 438.226 298.703 441.228 305.615 447.982C308.43 450.765 310.526 453.704 312.09 456.768L312.152 456.862C314.467 461.364 315.655 466.179 315.655 471.87V472.151C315.562 481.751 312.559 488.942 305.709 495.79L305.584 495.883C298.672 502.793 291.446 505.826 281.813 505.92C272.148 505.826 264.829 502.762 257.729 495.821C255.352 493.445 253.475 491.006 251.974 488.442C250.723 486.284 248.721 484.752 246.313 484.096C243.904 483.439 241.402 483.783 239.244 485.034L131.648 547.131C127.989 549.225 126.206 553.54 127.301 557.605C128.396 561.67 132.086 564.515 136.309 564.515H438.108C472.513 564.609 502.853 551.977 527.03 527.495H526.999C538.071 516.551 546.766 504.357 552.897 491.037C555.055 486.347 553.022 480.813 548.33 478.655C543.67 476.498 538.134 478.53 535.944 483.22C530.784 494.414 523.465 504.732 513.831 514.3H513.8C492.593 535.562 468.072 545.755 438.108 545.849H171.09L248.565 501.136L243.904 493.069L235.835 497.728C238.18 501.824 241.121 505.545 244.53 508.984C254.539 519.115 267.644 524.618 281.782 524.556C295.919 524.649 308.993 519.115 318.846 508.953L312.184 502.418L318.721 509.047C328.855 499.198 334.297 486.191 334.203 472.12V471.839C334.203 463.49 332.358 455.455 328.604 448.263L320.316 452.547L328.636 448.357C326.165 443.448 322.818 438.883 318.783 434.787C308.899 424.75 295.857 419.341 281.782 419.435C267.675 419.341 254.601 424.719 244.592 434.693L244.499 434.787C240.495 438.852 237.18 443.386 234.677 448.295C231.018 455.486 229.235 463.459 229.235 471.776V471.995C229.235 481.156 231.393 489.943 235.835 497.666C238.368 502.137 244.061 503.7 248.565 501.168C253.037 498.635 254.601 492.913 252.068 488.442L251.974 488.473ZM545.328 301.401V440.071H554.648L559.309 432.004L487.964 390.856C483.554 388.324 477.862 389.793 475.266 394.171C473.827 396.578 472.013 398.892 469.729 401.143L469.636 401.237C462.723 408.116 455.498 411.149 445.865 411.274C436.2 411.18 428.881 408.147 421.781 401.175C415.025 394.296 412.022 387.042 411.928 377.349V377.161C411.928 371.408 413.085 366.562 415.337 362.122C416.933 359.026 419.06 356.087 421.843 353.242L415.181 346.707L421.718 353.367C428.756 346.551 436.137 343.549 445.833 343.455C455.498 343.549 462.755 346.551 469.667 353.304C472.482 356.118 474.577 359.026 476.11 362.091L476.173 362.216C478.487 366.687 479.676 371.533 479.676 377.255V377.474V377.38V377.505C479.676 383.915 478.206 389.262 475.297 394.171C472.638 398.579 474.108 404.301 478.518 406.959C482.929 409.617 488.652 408.147 491.311 403.739C496.034 395.922 498.38 386.917 498.349 377.537V377.318H494.908L498.349 377.349V377.286C498.349 368.907 496.503 360.871 492.75 353.648L484.493 357.932L492.844 353.742C490.341 348.802 487.026 344.268 482.96 340.172C473.076 330.135 460.033 324.726 445.958 324.82C431.852 324.726 418.778 330.104 408.769 340.078L408.644 340.203C404.64 344.268 401.325 348.771 398.823 353.68C395.163 360.871 393.38 368.844 393.38 377.193V377.411C393.287 391.451 398.666 404.489 408.707 414.369C418.715 424.5 431.821 430.003 445.958 429.909C460.096 430.003 473.17 424.469 483.022 414.307L476.36 407.772L482.929 414.401C486.244 411.118 489.09 407.553 491.374 403.676L483.367 398.923L478.706 406.99L550.051 448.138C552.928 449.795 556.494 449.795 559.371 448.138C562.249 446.481 564.032 443.386 564.032 440.071V301.401C564.032 296.242 559.841 292.083 554.711 292.083C549.581 292.083 545.39 296.273 545.39 301.401H545.328ZM475.485 204.534C474.014 207.067 472.169 209.475 469.917 211.757L476.548 218.292L470.011 211.632C462.973 218.448 455.592 221.45 445.896 221.544C436.2 221.45 428.943 218.448 422.062 211.695C419.81 209.443 418.027 207.13 416.62 204.722C414.024 200.282 408.3 198.781 403.859 201.376C399.417 203.972 397.916 209.694 400.512 214.134C402.764 217.979 405.548 221.544 408.832 224.827C418.715 234.864 431.758 240.273 445.865 240.179C459.971 240.273 473.045 234.895 483.054 224.921L483.148 224.827C486.463 221.481 489.278 217.823 491.561 213.883C494.157 209.443 492.656 203.722 488.183 201.126C483.742 198.531 478.018 200.032 475.422 204.503L475.485 204.534ZM311.495 265.6C314.342 270.415 315.78 275.668 315.78 282.046V282.672C315.687 292.271 312.684 299.431 305.834 306.31L305.74 306.403C298.828 313.313 291.603 316.315 281.969 316.44C276.183 316.44 271.272 315.252 266.737 312.938C263.672 311.344 260.732 309.186 257.885 306.341C255.665 304.121 253.851 301.807 252.412 299.431C249.784 294.991 244.061 293.553 239.619 296.21C235.209 298.837 233.739 304.559 236.398 308.999C238.681 312.813 241.465 316.315 244.686 319.567C248.752 323.632 253.288 327.009 258.198 329.541C265.455 333.262 273.524 335.107 281.907 335.107C296.044 335.201 309.118 329.666 318.971 319.504L312.309 312.97L318.877 319.598C328.98 309.749 334.453 296.742 334.359 282.703V282.578V282.64V282.077C334.359 272.791 332.076 263.88 327.478 256.126C324.851 251.686 319.127 250.247 314.686 252.842C310.244 255.469 308.806 261.191 311.433 265.631L311.495 265.6ZM88.1099 539.345C74.2226 534.186 61.5551 525.931 49.9511 514.331C28.9011 493.132 18.7359 468.618 18.642 438.664V330.823L75.7552 363.873C80.2279 366.437 85.8892 364.936 88.4852 360.496C89.9553 357.963 91.8007 355.556 94.0527 353.242L87.3905 346.707L93.9275 353.367C100.965 346.551 108.347 343.549 118.043 343.455C127.739 343.549 134.995 346.551 141.876 353.304H141.845C144.097 355.556 145.911 357.869 147.287 360.277C149.883 364.686 155.576 366.187 159.986 363.654L249.065 312.25C251.223 311 252.787 308.936 253.413 306.528C254.038 304.121 253.694 301.557 252.412 299.4C249.503 294.459 248.033 289.05 248.002 282.484C248.127 272.854 251.192 265.631 258.042 258.689L258.136 258.596C265.048 251.686 272.273 248.653 281.907 248.559C287.662 248.559 292.572 249.747 297.108 252.092C300.204 253.687 303.144 255.813 305.991 258.658C308.211 260.909 310.025 263.192 311.464 265.6C314.091 269.977 319.721 271.447 324.132 268.883L413.211 217.51C417.589 214.978 419.153 209.381 416.714 204.941L415.431 202.596L407.268 207.098L415.556 202.815C413.242 198.344 412.053 193.497 412.053 187.838V187.525C412.147 177.926 415.15 170.766 421.968 163.887L422.062 163.793C428.975 156.883 436.2 153.85 445.833 153.756C455.467 153.85 462.817 156.883 469.886 163.856C476.642 170.766 479.645 177.988 479.738 187.681V187.869C479.738 193.591 478.581 198.469 476.329 202.909L484.649 207.13L476.485 202.596L475.328 204.691C472.857 209.131 474.39 214.728 478.8 217.292L549.926 258.439C552.803 260.096 556.369 260.096 559.246 258.439C562.124 256.782 563.907 253.687 563.907 250.372V126.397C564 92.0346 551.458 61.7053 527.124 37.5357C513.831 24.2471 498.818 14.3666 482.272 8.2382C477.455 6.45596 472.075 8.89481 470.292 13.7412C468.478 18.5564 470.949 23.9344 475.797 25.7166C489.685 30.8757 502.352 39.099 513.956 50.7305C535.037 71.9297 545.171 96.4433 545.265 126.429V234.238L488.152 201.189L483.492 209.256L491.655 213.79L492.812 211.695L492.969 211.382C496.628 204.191 498.411 196.217 498.411 187.9V187.681C498.505 173.611 493.125 160.573 483.085 150.692C473.076 140.561 459.971 135.058 445.833 135.152C431.696 135.058 418.622 140.593 408.738 150.755L415.4 157.29L408.863 150.661C398.76 160.51 393.287 173.517 393.38 187.588V187.744H402.701L393.38 187.619V187.9C393.38 196.249 395.226 204.284 398.979 211.476L399.104 211.695L400.387 214.04L408.55 209.537L403.89 201.47L314.842 252.842L319.503 260.909L327.51 256.126C325.258 252.342 322.443 248.809 319.252 245.588C315.155 241.492 310.62 238.147 305.709 235.614C298.484 231.862 290.383 230.017 281.969 230.017C267.832 229.924 254.758 235.458 244.874 245.62L251.536 252.155L244.968 245.526C234.834 255.375 229.329 268.414 229.36 282.546C229.36 292.052 231.675 301.119 236.398 308.999L244.405 304.246L239.744 296.179L150.665 347.582L155.326 355.649L163.395 350.928C161.143 347.082 158.36 343.518 155.107 340.203H155.076C145.192 330.167 132.149 324.757 118.043 324.851C103.936 324.757 90.8623 330.135 80.8535 340.11L80.7283 340.235C77.4442 343.58 74.6292 347.239 72.3146 351.178L80.3843 355.868L85.0447 347.801L13.9191 306.654C11.0416 304.996 7.4759 304.965 4.59835 306.654C1.78335 308.248 0.000522629 311.344 0.000522629 314.689V438.695C-0.0933105 473.058 12.4491 503.356 36.7831 527.557C50.0762 540.846 65.0895 550.726 81.6354 556.855C86.4522 558.637 91.8319 556.198 93.6148 551.352C95.3976 546.536 92.9579 541.158 88.1099 539.376V539.345ZM311.996 76.5573C314.717 81.4037 316.125 86.6879 316.125 93.0352V93.2228C316.125 98.9447 314.967 103.791 312.715 108.262C311.12 111.389 308.993 114.328 306.241 117.142L312.872 123.677L306.335 117.017C299.266 123.833 291.916 126.835 282.219 126.929C272.555 126.835 265.298 123.833 258.386 117.08H258.417C255.602 114.297 253.507 111.358 251.974 108.294L251.911 108.169C249.597 103.697 248.408 98.8509 248.408 93.1602V92.8788C248.502 83.2798 251.505 76.1196 258.355 69.2407L258.448 69.1469C265.361 62.2369 272.555 59.2352 282.219 59.1101C291.884 59.2039 299.203 62.2369 306.303 69.1782C308.68 71.5545 310.557 73.9934 312.058 76.5886C314.654 81.0598 320.347 82.5606 324.788 79.9967L432.384 17.8998C436.043 15.7736 437.826 11.49 436.731 7.42525C435.637 3.32923 431.946 0.515167 427.723 0.515167H125.893C91.4879 0.421365 61.1485 13.0534 36.9708 37.5357H37.0334C25.961 48.4792 17.2658 60.6735 11.1041 73.9934C8.94595 78.6522 10.979 84.1865 15.6707 86.3752C20.331 88.5327 25.8672 86.5003 28.0566 81.8102C33.2175 70.6165 40.5365 60.2983 50.17 50.7305H50.2326C71.4389 29.4687 95.9606 19.2756 125.925 19.1818H392.943L315.468 63.894L320.128 71.961L328.198 67.3022C325.852 63.2374 322.912 59.4853 319.503 56.0459C309.494 45.9153 296.388 40.4435 282.251 40.5061C268.113 40.4123 255.039 45.9153 245.187 56.1085L251.849 62.6433L245.312 56.0147C235.178 65.8639 229.735 78.8711 229.829 92.9414V93.0977H239.15L229.829 92.9726V93.2228C229.829 101.602 231.675 109.607 235.428 116.83L243.685 112.546L235.365 116.736C237.836 121.676 241.183 126.241 245.218 130.306C255.102 140.343 268.145 145.721 282.219 145.627C296.326 145.721 309.4 140.343 319.409 130.368L319.503 130.275C323.506 126.21 326.822 121.676 329.324 116.767C332.983 109.607 334.766 101.602 334.766 93.2853V93.0664C334.766 83.8739 332.608 75.0877 328.166 67.396C325.633 62.9247 319.909 61.3614 315.436 63.894C310.964 66.4267 309.4 72.1173 311.933 76.5886L311.996 76.5573ZM18.642 263.63V124.959H9.32129L4.6609 133.057L76.0054 174.205C80.4156 176.738 86.0768 175.268 88.7042 170.891C90.1429 168.483 91.957 166.138 94.2403 163.918L94.3342 163.793C101.247 156.883 108.472 153.85 118.105 153.756C127.77 153.85 135.089 156.883 142.189 163.856C148.945 170.766 151.948 177.988 152.042 187.681V187.869C152.042 193.591 150.884 198.469 148.632 202.909C147.068 206.004 144.942 208.943 142.158 211.757L148.789 218.292L142.252 211.632C135.214 218.448 127.833 221.45 118.137 221.544C108.44 221.45 101.215 218.448 94.3029 211.695C91.4879 208.912 89.3923 206.004 87.8597 202.909L87.7971 202.815C85.4826 198.312 84.294 193.466 84.294 187.775V187.525C84.294 181.084 85.7641 175.769 88.7042 170.86C91.3315 166.451 89.8927 160.729 85.4826 158.071C81.0724 155.445 75.3486 156.883 72.69 161.292C67.967 169.109 65.6212 178.114 65.6525 187.525V187.681H74.9732L65.6525 187.588V187.775C65.6525 196.124 67.4979 204.191 71.2512 211.413L79.5398 207.13L71.1886 211.319C73.6908 216.26 77.0063 220.793 81.0724 224.889C90.9562 234.926 103.999 240.304 118.074 240.21C132.18 240.304 145.254 234.926 155.263 224.952L155.357 224.858C159.361 220.793 162.676 216.291 165.178 211.382C168.838 204.191 170.621 196.217 170.621 187.869V187.65C170.714 173.58 165.303 160.541 155.294 150.661C145.286 140.53 132.18 135.027 118.043 135.121C103.905 135.027 90.831 140.562 80.9786 150.723L87.6407 157.258L81.1037 150.63C77.7882 153.913 74.942 157.508 72.6587 161.354L80.6658 166.138L85.3262 158.04L13.9817 116.892C11.1041 115.235 7.53846 115.235 4.6609 116.892C1.78335 118.549 0.000522629 121.645 0.000522629 124.959V263.63C0.000522629 268.789 4.19174 272.947 9.32129 272.947C14.4508 272.947 18.642 268.789 18.642 263.63Z" fill="url(#paint0_linear_609_5445)"/>
</g>
<defs>
<linearGradient id="paint0_linear_609_5445" x1="1.67072e-05" y1="564.516" x2="278.986" y2="-0.980106" gradientUnits="userSpaceOnUse">
<stop stop-color="#F3BEDA"/>
<stop offset="0.35" stop-color="#E79D49"/>
<stop offset="0.65" stop-color="#FF7983"/>
<stop offset="1" stop-color="#2B01B2"/>
</linearGradient>
<clipPath id="clip0_609_5445">
<rect width="564" height="564" fill="white" transform="translate(0 0.514648)"/>
</clipPath>
</defs>
</svg>
