<svg width="24" height="22" viewBox="0 0 24 22" fill="none" xmlns="http://www.w3.org/2000/svg">
<path fill-rule="evenodd" clip-rule="evenodd" d="M22.001 2.00098H2.00098C1.45098 2.00098 1.00098 1.55098 1.00098 1.00098C1.00098 0.450977 1.45098 0.000976562 2.00098 0.000976562H22.001C22.551 0.000976562 23.001 0.450977 23.001 1.00098C23.001 1.55098 22.551 2.00098 22.001 2.00098ZM22.001 6.00098H2.00098C1.45098 6.00098 1.00098 5.55098 1.00098 5.00098C1.00098 4.45098 1.45098 4.00098 2.00098 4.00098H22.001C22.551 4.00098 23.001 4.45098 23.001 5.00098C23.001 5.55098 22.551 6.00098 22.001 6.00098ZM15.001 12.001C15.001 13.658 13.658 15.001 12.001 15.001C10.344 15.001 9.00098 13.658 9.00098 12.001H0.000976562V20.001C0.000976562 21.106 0.896977 22.001 2.00098 22.001H22.001C23.105 22.001 24.001 21.106 24.001 20.001V12.001H15.001ZM22.001 10.001H2.00098C1.45098 10.001 1.00098 9.55098 1.00098 9.00098C1.00098 8.45098 1.45098 8.00098 2.00098 8.00098H22.001C22.551 8.00098 23.001 8.45098 23.001 9.00098C23.001 9.55098 22.551 10.001 22.001 10.001Z" fill="url(#paint0_linear_51_22875)"/>
<defs>
<linearGradient id="paint0_linear_51_22875" x1="0.000977273" y1="22.001" x2="10.2989" y2="-0.768827" gradientUnits="userSpaceOnUse">
<stop stop-color="#F3BEDA"/>
<stop offset="0.35" stop-color="#E79D49"/>
<stop offset="0.65" stop-color="#FF7983"/>
<stop offset="1" stop-color="#2B01B2"/>
</linearGradient>
</defs>
</svg>
