<svg width="24" height="24" viewBox="0 0 24 24" fill="none" xmlns="http://www.w3.org/2000/svg">
<path fill-rule="evenodd" clip-rule="evenodd" d="M10.001 7.00098C10.001 3.13498 13.135 0.000976562 17.001 0.000976562C20.867 0.000976562 24.001 3.13498 24.001 7.00098C24.001 10.867 20.867 14.001 17.001 14.001C13.135 14.001 10.001 10.867 10.001 7.00098ZM12.462 14.764L11.257 15.32C10.46 15.688 9.541 15.688 8.743 15.32L0 11.285V10.003C0 8.89698 0.896 8.00098 2.002 8.00098H8.059C8.379 10.891 10.068 13.361 12.462 14.764ZM20.001 8.00098H18.001V10.001C18.001 10.551 17.551 11.001 17.001 11.001C16.451 11.001 16.001 10.551 16.001 10.001V8.00098H14.001C13.451 8.00098 13.001 7.55098 13.001 7.00098C13.001 6.45098 13.451 6.00098 14.001 6.00098H16.001V4.00098C16.001 3.45098 16.451 3.00098 17.001 3.00098C17.551 3.00098 18.001 3.45098 18.001 4.00098V6.00098H20.001C20.551 6.00098 21.001 6.45098 21.001 7.00098C21.001 7.55098 20.551 8.00098 20.001 8.00098ZM12.097 17.135L15.035 15.779C15.668 15.92 16.325 16.001 17.001 16.001C18.055 16.001 19.061 15.811 20.001 15.478V21.999C20.001 23.105 19.105 24.001 17.999 24.001H2.003C0.897 24.001 0.001 23.105 0.001 21.999V13.487L7.907 17.136C8.572 17.443 9.287 17.596 10.002 17.596C10.717 17.596 11.431 17.443 12.097 17.135Z" fill="url(#paint0_linear_51_21258)"/>
<defs>
<linearGradient id="paint0_linear_51_21258" x1="7.10934e-07" y1="24.001" x2="11.8718" y2="-0.0625084" gradientUnits="userSpaceOnUse">
<stop stop-color="#F3BEDA"/>
<stop offset="0.35" stop-color="#E79D49"/>
<stop offset="0.65" stop-color="#FF7983"/>
<stop offset="1" stop-color="#2B01B2"/>
</linearGradient>
</defs>
</svg>
