<svg width="22" height="22" viewBox="0 0 22 22" fill="none" xmlns="http://www.w3.org/2000/svg">
<path fill-rule="evenodd" clip-rule="evenodd" d="M0 18.001V0.00100708H22V18.001C22 20.21 20.209 22.001 18 22.001H4C1.791 22.001 0 20.21 0 18.001ZM11 13.001C14.309 13.001 17 10.31 17 7.00101V5.00101C17 4.44901 16.552 4.00101 16 4.00101C15.448 4.00101 15 4.44901 15 5.00101V7.00101C15 9.20701 13.206 11.001 11 11.001C8.794 11.001 7 9.20701 7 7.00101V5.00101C7 4.44901 6.552 4.00101 6 4.00101C5.448 4.00101 5 4.44901 5 5.00101V7.00101C5 10.31 7.691 13.001 11 13.001Z" fill="#9C49E7"/>
</svg>
