<svg width="42" height="44" viewBox="0 0 42 44" fill="none" xmlns="http://www.w3.org/2000/svg">
<path d="M0.000143636 10.5C0.000143636 4.97715 4.4773 0.5 10.0001 0.5H32.0001C37.523 0.5 42.0001 4.97715 42.0001 10.5V33.5C42.0001 39.0228 37.523 43.5 32.0001 43.5H10.0001C4.4773 43.5 0.000143636 39.0228 0.000143636 33.5V10.5Z" fill="#2D72E1"/>
<path d="M9 21.5C8.44772 21.5 8 21.9477 8 22.5C8 23.0523 8.44772 23.5 9 23.5V21.5ZM34.7071 23.2071C35.0976 22.8166 35.0976 22.1834 34.7071 21.7929L28.3431 15.4289C27.9526 15.0384 27.3195 15.0384 26.9289 15.4289C26.5384 15.8195 26.5384 16.4526 26.9289 16.8431L32.5858 22.5L26.9289 28.1569C26.5384 28.5474 26.5384 29.1805 26.9289 29.5711C27.3195 29.9616 27.9526 29.9616 28.3431 29.5711L34.7071 23.2071ZM9 23.5H34V21.5H9V23.5Z" fill="#EFEFEF"/>
</svg>
